<?xml version="1.0" encoding="UTF-8"?>
<!DOCTYPE svg PUBLIC "-//W3C//DTD SVG 1.1//EN" "http://www.w3.org/Graphics/SVG/1.1/DTD/svg11.dtd">
<svg xmlns="http://www.w3.org/2000/svg" version="1.1" width="28px" height="28px" style="shape-rendering:geometricPrecision; text-rendering:geometricPrecision; image-rendering:optimizeQuality; fill-rule:evenodd; clip-rule:evenodd" xmlns:xlink="http://www.w3.org/1999/xlink">
<g><path style="opacity:0.651" fill="#e9e9e9" d="M 25.5,7.5 C 26.8994,20.2672 21.2327,25.7672 8.5,24C 2.09185,20.3519 -0.241479,14.8519 1.5,7.5C 3.60555,2.10836 7.60555,-0.224971 13.5,0.5C 19.3944,-0.224971 23.3944,2.10836 25.5,7.5 Z M 11.5,11.5 C 12.8333,11.5 14.1667,11.5 15.5,11.5C 15.5,12.8333 15.5,14.1667 15.5,15.5C 14.1667,15.5 12.8333,15.5 11.5,15.5C 11.5,14.1667 11.5,12.8333 11.5,11.5 Z"/></g>
<g><path style="opacity:0.146" fill="#151515" d="M 16.5,11.5 C 16.1667,10.1667 15.8333,10.1667 15.5,11.5C 14.1667,11.5 12.8333,11.5 11.5,11.5C 11.5,10.8333 11.1667,10.5 10.5,10.5C 10.1667,9.16667 9.83333,9.16667 9.5,10.5C 7.53368,9.74547 7.20035,8.5788 8.5,7C 10.9034,6.36976 12.7367,7.20309 14,9.5C 15.0195,8.31277 16.1861,7.31277 17.5,6.5C 20.2896,8.79709 19.9563,10.4638 16.5,11.5 Z"/></g>
<g><path style="opacity:0.156" fill="#070707" d="M 1.5,7.5 C -0.241479,14.8519 2.09185,20.3519 8.5,24C 21.2327,25.7672 26.8994,20.2672 25.5,7.5C 28.6454,22.1915 22.6454,28.3581 7.5,26C 2.17642,23.5204 -0.156913,19.3538 0.5,13.5C 0.504648,11.3035 0.837982,9.30352 1.5,7.5 Z M 11.5,11.5 C 12.8333,11.5 14.1667,11.5 15.5,11.5C 15.5,12.8333 15.5,14.1667 15.5,15.5C 14.1667,15.5 12.8333,15.5 11.5,15.5C 11.5,14.1667 11.5,12.8333 11.5,11.5 Z"/></g>
<g><path style="opacity:0.12" fill="#000000" d="M 10.5,11.5 C 10.8333,11.5 11.1667,11.5 11.5,11.5C 11.5,12.8333 11.5,14.1667 11.5,15.5C 10.8333,15.5 10.5,15.8333 10.5,16.5C 9.16667,16.8333 9.16667,17.1667 10.5,17.5C 9.2566,18.7375 8.2566,18.4041 7.5,16.5C 8.95244,15.0603 9.95244,13.3936 10.5,11.5 Z"/></g>
<g><path style="opacity:0.099" fill="#000000" d="M 15.5,11.5 C 15.8333,11.5 16.1667,11.5 16.5,11.5C 17.0476,13.3936 18.0476,15.0603 19.5,16.5C 18.7434,18.4041 17.7434,18.7375 16.5,17.5C 17.8333,17.1667 17.8333,16.8333 16.5,16.5C 16.5,15.8333 16.1667,15.5 15.5,15.5C 15.5,14.1667 15.5,12.8333 15.5,11.5 Z"/></g>
</svg>
